<svg xmlns="http://www.w3.org/2000/svg" xmlns:xlink="http://www.w3.org/1999/xlink" width="365" height="400" viewBox="0 0 365 400">
  <defs>
    <clipPath id="clip-path">
      <rect id="Rectangle_983" data-name="Rectangle 983" width="365" height="400" transform="translate(1491 207)" fill="#fff" stroke="#707070" stroke-width="1"/>
    </clipPath>
  </defs>
  <g id="Mask_Group_9" data-name="Mask Group 9" transform="translate(-1491 -207)" clip-path="url(#clip-path)">
    <g id="Background" transform="translate(1380.5 163.74)">
      <path id="Path_202" data-name="Path 202" d="M490.468,321.227c-1.223-3.113-4-29.463-.5-54.145-4.947-2.613-12.285-7.282-13.731-11.062.389-7.783,18.9-27.795,26.906-24.737l.056.056a25.994,25.994,0,0,1,9.561-7.115l.556-8.561-1.445-1.167-1.835-1.834-1.279-2.5-.278-1.668v-2.946l-.723-.889-2.057-2.112-.5-1,1.723-3.447,3.836-7.282,1.557-3.28s-14.4-11.563-12.4-18.623a12.281,12.281,0,0,1,2-3.558c-.111,1-1.946,6.615,8.839,11.841.5.167,1.89.612,3.725,1.167V43H109.9l-.4,400s41.426-1.81,404.983-1.254V325.9C502.976,326.453,492.191,325.563,490.468,321.227Z" transform="translate(0)" fill="#f3f3f3"/>
      <g id="Group_555" data-name="Group 555" transform="translate(319.474 173.358)">
        <path id="Path_203" data-name="Path 203" d="M667.956,277.5H486.9v8.45H673.849C671.514,283.393,669.068,280.335,667.956,277.5Z" transform="translate(-486.9 -277.5)" fill="#e1e1e1"/>
        <path id="Path_204" data-name="Path 204" d="M820.7,277.5a22.457,22.457,0,0,0,5.892,3.836c1.279.389,8.839,2.724,13.62,4.614h16.9V277.5Z" transform="translate(-635.141 -277.5)" fill="#e1e1e1"/>
      </g>
      <rect id="Rectangle_791" data-name="Rectangle 791" width="404.527" height="30.352" transform="translate(109.9 43)" fill="#e1e1e1"/>
      <circle id="Ellipse_76" data-name="Ellipse 76" cx="4.781" cy="4.781" r="4.781" transform="translate(126.466 53.784)" fill="#fff"/>
      <circle id="Ellipse_77" data-name="Ellipse 77" cx="4.781" cy="4.781" r="4.781" transform="translate(141.864 53.784)" fill="#fff"/>
      <circle id="Ellipse_78" data-name="Ellipse 78" cx="4.781" cy="4.781" r="4.781" transform="translate(157.263 53.784)" fill="#fff"/>
      <rect id="Rectangle_794" data-name="Rectangle 794" width="222.026" height="8.45" transform="translate(319.474 101.814)" fill="#e1e1e1"/>
      <rect id="Rectangle_795" data-name="Rectangle 795" width="222.026" height="8.45" transform="translate(319.474 125.662)" fill="#e1e1e1"/>
      <rect id="Rectangle_796" data-name="Rectangle 796" width="222.026" height="8.45" transform="translate(319.474 149.51)" fill="#e1e1e1"/>
      <rect id="Rectangle_792" data-name="Rectangle 792" width="268.19" height="145.297" transform="translate(149.5 115)" fill="#fff"/>
      <path id="Polygon_1" data-name="Polygon 1" d="M36.7,0,73.4,61.655H0Z" transform="translate(315.737 157.153) rotate(90)" fill="#f3f3f3"/>
    </g>
  </g>
</svg>
