<svg xmlns="http://www.w3.org/2000/svg" xmlns:xlink="http://www.w3.org/1999/xlink" width="465.942" height="523.8" viewBox="0 0 465.942 523.8">
  <defs>
    <linearGradient id="linear-gradient" x1="-0.244" y1="0.5" x2="1.286" y2="0.5" gradientUnits="objectBoundingBox">
      <stop offset="0" stop-color="#00aeef"/>
      <stop offset="1" stop-color="#195b41"/>
    </linearGradient>
    <linearGradient id="linear-gradient-2" x1="0.004" y1="0.5" x2="1.024" y2="0.5" xlink:href="#linear-gradient"/>
  </defs>
  <g id="Group_843" data-name="Group 843" transform="translate(-65.549 -118.443)">
    <path id="Path_5" data-name="Path 5" d="M510.567,555.226l-23.693,30.705-23.631-30.705h-19.47l33.366,43.293,2.106,2.607v40.44h15.447V600.882l1.8-2.363,33.431-43.293Zm-283.261,70.9a12.24,12.24,0,0,1-10.482-10.481V555.355H201.38v58.8a26.72,26.72,0,0,0,2.852,12.1,27.244,27.244,0,0,0,12.47,12.589,26.525,26.525,0,0,0,12.094,2.854h43.725V626.248Zm-90.865-63.762-.122-.244a23.248,23.248,0,0,0-16.377-6.762H65.549v86.336H80.992V601.933h41.247v-.121h.742a19.126,19.126,0,0,0,6.7-1.8A23.394,23.394,0,0,0,143.2,578.8a23.047,23.047,0,0,0-6.761-16.437m-13.209,23.57v.127a7.011,7.011,0,0,1-3.164.738H80.992V570.921h39.076a7.785,7.785,0,0,1,5.519,2.17,8.2,8.2,0,0,1,2.358,5.707,7.863,7.863,0,0,1-4.713,7.133" fill="#fff" fill-rule="evenodd"/>
    <line id="Line_2" data-name="Line 2" x1="0.022" y1="0.012" transform="translate(355.083 553.831)" fill="#383939"/>
    <path id="Path_6" data-name="Path 6" d="M412.267,596.3l-17.088-8.388,0,.011L391.87,586.3l-33.115-16.246-.025-.015-3.4-1.661-15.3-7.507-.038-.014-3.327-1.631-8.22-4.035a2.462,2.462,0,0,0-1.125-.262,2.525,2.525,0,0,0-1.357.389,2.552,2.552,0,0,0-1.205,2.174v82.189a2.538,2.538,0,0,0,1.205,2.168,2.51,2.51,0,0,0,2.482.129l83.8-41.1a2.5,2.5,0,0,0,1.439-2.279A2.51,2.51,0,0,0,412.267,596.3Zm-32.237,2.455-27.515,13.295a.034.034,0,0,1-.016,0l-11.479,5.539-.132.067V579.507l12.154,5.873,27.326,13.209Z" fill="#fff"/>
    <g id="Group_3" data-name="Group 3">
      <path id="Path_7" data-name="Path 7" d="M453.891,458.31V241.065a34.508,34.508,0,0,0-11-25.566,36.1,36.1,0,0,0-24.341-9.581,34.627,34.627,0,0,0-25.038,10.746l-94.78,97.845-95.2-98.284a34.622,34.622,0,0,0-25.04-10.744,36.068,36.068,0,0,0-24.341,9.579,34.5,34.5,0,0,0-11,25.564V457.863l46.309.045V276.122a3.065,3.065,0,0,1,5.23-2.025l13.588,13.582,66.814,69.008,23.732,24.38,15.9-16.49,0,0,87.824-90.7a3.008,3.008,0,0,1,1.92-.688,3.073,3.073,0,0,1,3.072,3.072v19.179l.041-.033V458.31Z" fill="url(#linear-gradient)"/>
      <path id="Path_8" data-name="Path 8" d="M531.327,216.99a98.05,98.05,0,0,0-23.56-64l-.037-.045c-1.838-2.126-3.553-3.979-5.248-5.68-1.114-1.117-2.319-2.227-3.288-3.121l-.031-.03a97.621,97.621,0,0,0-47.316-23.838,100.124,100.124,0,0,0-38.127,0A98.365,98.365,0,0,0,366.4,144.1l-.3.288c-.458.459-.933.91-1.408,1.368-.523.5-1.045,1.006-1.558,1.516l-64.612,64.61-64.626-64.621c-.5-.5-1.022-1-1.546-1.5-.473-.458-.949-.909-1.405-1.368l-.3-.288a98.322,98.322,0,0,0-47.318-23.824,100.18,100.18,0,0,0-38.1-.007,97.642,97.642,0,0,0-47.347,23.845l-.03.033c-1.022.943-2.179,2.009-3.3,3.133-1.685,1.686-3.395,3.539-5.236,5.665l-.033.045A98.045,98.045,0,0,0,65.71,216.96l-.161,50.457v262.6H262.586V443.81l30.571,33.275V411.658l-46.653-48.1h0a20.42,20.42,0,0,0-28.645,10.377l-.011.036.043,90.5v19.086l-106.112.235V300.8l.24-83.806A51.93,51.93,0,0,1,127.274,180l.031-.036a51.832,51.832,0,0,1,25.308-13.986,55.431,55.431,0,0,1,23.232,0A52.73,52.73,0,0,1,201.2,180.013l85.771,85.774L298.519,276.8,310,265.86l85.837-85.843a52.74,52.74,0,0,1,25.353-14.038,55.46,55.46,0,0,1,23.238,0,51.829,51.829,0,0,1,25.31,13.986l.028.036a51.929,51.929,0,0,1,15.255,37.015l.244,83.758V483.791l-106.716-.219V372.5h0a20.5,20.5,0,0,0-26.375-9.76h0L303.88,411.658v65.427l30.572-33.275v86.207H531.491V267.392Z" fill="url(#linear-gradient-2)"/>
    </g>
  </g>
</svg>
