<svg xmlns="http://www.w3.org/2000/svg" width="55.464" height="55.464" viewBox="0 0 55.464 55.464"><defs><style>.a{fill:#4abc96;}.b{fill:#aab6b3;}.c{fill:#d8d8d8;}.d{fill:#e5e5e5;}.e{fill:#e1e1e1;}</style></defs><g transform="translate(0 0)"><ellipse class="a" cx="27.732" cy="27.732" rx="27.732" ry="27.732" transform="translate(0 0)"/><path class="b" d="M78.7,160.318l0,17.15a1.619,1.619,0,0,0,1.617,1.617h32.869a1.618,1.618,0,0,0,1.618-1.617l-.031-17.182-17.9,9.833-18.171-9.8" transform="translate(-69.487 -141.528)"/><path class="c" d="M78.7,173.214l18.171,10.524,17.9-10.507.031,17.017a1.617,1.617,0,0,1-1.618,1.617H80.314a1.619,1.619,0,0,1-1.617-1.617Z" transform="translate(-69.487 -152.943)"/><g transform="translate(9.21 20.271)"><path class="d" d="M233.987,183.863l17.9-10.507.031,17.017a1.617,1.617,0,0,1-1.618,1.617Z" transform="translate(-215.813 -173.339)"/><path class="d" d="M78.7,173.214l18.171,10.524-16.557,8.127a1.619,1.619,0,0,1-1.617-1.617Z" transform="translate(-78.697 -173.214)"/></g><path class="e" d="M114.8,152.574a1.618,1.618,0,0,0-1.618-1.617H80.314a1.619,1.619,0,0,0-1.617,1.617l18.174,9.71Z" transform="translate(-69.487 -133.291)"/></g></svg>