<svg xmlns="http://www.w3.org/2000/svg" xmlns:xlink="http://www.w3.org/1999/xlink" width="65.857" height="65.858" viewBox="0 0 65.857 65.858">
  <defs>
    <clipPath id="clip-path">
      <rect width="65.858" height="65.858" fill="none"/>
    </clipPath>
  </defs>
  <g id="Component" clip-path="url(#clip-path)">
    <ellipse id="Ellipse_29" data-name="Ellipse 29" cx="23.929" cy="23.929" rx="23.929" ry="23.929" transform="translate(9 7)" fill="#fff"/>
    <g id="star_3_" data-name="star (3)" transform="translate(19.999 16.953)" fill="#ed8a19">
      <path d="M14.388,1.835l2.96,6a1.413,1.413,0,0,0,1.064.773l6.618.962a1.413,1.413,0,0,1,.783,2.41l-4.789,4.668a1.413,1.413,0,0,0-.406,1.251l1.13,6.591a1.413,1.413,0,0,1-2.05,1.49l-5.919-3.112a1.415,1.415,0,0,0-1.315,0L6.544,25.976a1.413,1.413,0,0,1-2.05-1.49l1.13-6.591a1.413,1.413,0,0,0-.406-1.251L.429,11.976a1.413,1.413,0,0,1,.783-2.41L7.83,8.6a1.413,1.413,0,0,0,1.064-.773l2.96-6A1.413,1.413,0,0,1,14.388,1.835Z" stroke="none"/>
      <path d="M 13.12093257904053 3.786691665649414 L 10.68798065185547 8.716485977172852 C 10.19070053100586 9.724294662475586 9.229761123657227 10.42231559753418 8.117959976196289 10.58359527587891 L 2.676704406738281 11.37429237365723 L 6.61421012878418 15.21234512329102 C 7.418821334838867 15.99710559844971 7.78546142578125 17.12667465209961 7.595149993896484 18.23286437988281 L 6.665746688842773 23.65265464782715 L 11.53320026397705 21.09379577636719 C 12.02087020874023 20.83761596679688 12.56990051269531 20.70221519470215 13.12093067169189 20.70221519470215 C 13.67196083068848 20.70221519470215 14.22099113464355 20.83761596679688 14.70924091339111 21.09409523010254 L 19.57611083984375 23.65264892578125 L 18.64690017700195 18.23393630981445 C 18.45640182495117 17.12667465209961 18.82304000854492 15.99710559844971 19.62808036804199 15.21191501617432 L 23.56516456604004 11.37428855895996 L 18.12437057495117 10.58366584777832 C 17.01211929321289 10.42231559753418 16.05120086669922 9.724315643310547 15.55394077301025 8.716615676879883 L 13.12093257904053 3.786691665649414 M 13.12072467803955 1.0467529296875 C 13.62464332580566 1.0467529296875 14.12863063812256 1.309350967407227 14.38781070709229 1.834545135498047 L 17.34741973876953 7.83149528503418 C 17.55324172973633 8.24859619140625 17.951171875 8.537605285644531 18.41150093078613 8.604385375976562 L 25.02972030639648 9.566104888916016 C 26.18904113769531 9.734695434570312 26.65155982971191 11.15894508361816 25.8129997253418 11.97616481781006 L 21.02408981323242 16.64410400390625 C 20.69129180908203 16.96869659423828 20.53911972045898 17.43669509887695 20.61794090270996 17.89483642578125 L 21.74825096130371 24.48622512817383 C 21.90503883361816 25.39965629577637 21.17894172668457 26.14144325256348 20.35542678833008 26.14144325256348 C 20.13817596435547 26.14144325256348 19.91422271728516 26.08985137939453 19.69782066345215 25.97616577148438 L 13.77859020233154 22.86437606811523 C 13.57278060913086 22.75627136230469 13.34685611724854 22.70221710205078 13.12093067169189 22.70221710205078 C 12.89500522613525 22.70221710205078 12.66908073425293 22.75627136230469 12.46327114105225 22.86437606811523 L 6.544040679931641 25.97616577148438 C 6.32763671875 26.08996391296387 6.103475570678711 26.14165496826172 5.886224746704102 26.14165496826172 C 5.062709808349609 26.14165496826172 4.336822509765625 25.39965629577637 4.493610382080078 24.48622512817383 L 5.623920440673828 17.89483642578125 C 5.702741622924805 17.43669509887695 5.550571441650391 16.96869659423828 5.217771530151367 16.64410400390625 L 0.4288616180419922 11.97616481781006 C -0.4097099304199219 11.15839576721191 0.05282020568847656 9.734146118164062 1.212141036987305 9.566104888916016 L 7.830350875854492 8.604385375976562 C 8.290691375732422 8.537605285644531 8.688631057739258 8.24859619140625 8.894441604614258 7.83149528503418 L 11.8540506362915 1.834545135498047 C 12.11295604705811 1.309350967407227 12.61680603027344 1.0467529296875 13.12072467803955 1.0467529296875 Z" stroke="none" fill="rgba(0,0,0,0.3)"/>
    </g>
  </g>
</svg>
