<svg xmlns="http://www.w3.org/2000/svg" width="47.857" height="47.858" viewBox="0 0 47.857 47.858">
  <g id="Group_841" data-name="Group 841" transform="translate(-6695.143 -4785)">
    <ellipse id="Ellipse_29" data-name="Ellipse 29" cx="23.929" cy="23.929" rx="23.929" ry="23.929" transform="translate(6695.143 4785)" fill="#ed8a19"/>
    <g id="star_3_" data-name="star (3)" transform="translate(6706.142 4794.953)" fill="#fff">
      <path d="M 5.886220455169678 25.14165496826172 C 5.76693058013916 25.14165496826172 5.646880626678467 25.08372497558594 5.565090656280518 24.9867057800293 C 5.486390590667725 24.89333534240723 5.45749044418335 24.7818660736084 5.479200839996338 24.6553955078125 L 6.609530448913574 18.06385612487793 C 6.744110584259033 17.28163528442383 6.484870433807373 16.48307609558105 5.915990829467773 15.92822551727295 L 1.126860618591309 11.26007556915283 C 0.9668406844139099 11.10402488708496 0.9927106499671936 10.92761516571045 1.022390723228455 10.83636569976807 C 1.052010655403137 10.74531555175781 1.134670615196228 10.5877857208252 1.35559070110321 10.55576515197754 L 7.974160671234131 9.593995094299316 C 8.76029109954834 9.479945182800293 9.439650535583496 8.986474990844727 9.791211128234863 8.273984909057617 L 12.7507905960083 2.277105331420898 C 12.8496208190918 2.076625347137451 13.02497100830078 2.046755313873291 13.12072086334229 2.046755313873291 C 13.21658039093018 2.046755313873291 13.39216041564941 2.076675176620483 13.49106025695801 2.277085304260254 L 16.45067977905273 8.274055480957031 C 16.80223083496094 8.986485481262207 17.48159027099609 9.479955673217773 18.26793098449707 9.594025611877441 L 24.88592147827148 10.55571556091309 C 25.10714149475098 10.5878849029541 25.18988990783691 10.74572563171387 25.21952056884766 10.83695507049561 C 25.24912071228027 10.92808532714844 25.27490997314453 11.10422515869141 25.11507034301758 11.26000499725342 L 20.32608985900879 15.92801570892334 C 19.75699043273926 16.48307609558105 19.49775123596191 17.28163528442383 19.63242149353027 18.06438446044922 L 20.76263999938965 24.65524482727051 C 20.78435134887695 24.78173446655273 20.75547981262207 24.89308547973633 20.67686080932617 24.98635482788086 C 20.59501075744629 25.08345603942871 20.47482109069824 25.14143562316895 20.35536003112793 25.14144515991211 C 20.29061126708984 25.14144515991211 20.22765159606934 25.12491607666016 20.16289138793945 25.09089469909668 L 14.24392032623291 21.97923469543457 C 13.89878082275391 21.79795455932617 13.51057052612305 21.70222473144531 13.12093067169189 21.70222473144531 C 12.73129081726074 21.70222473144531 12.34308052062988 21.79795455932617 11.99827098846436 21.97906494140625 L 6.078710556030273 25.09102439880371 C 6.013890743255615 25.12511444091797 5.950970649719238 25.14165496826172 5.886220455169678 25.14165496826172 Z" stroke="none"/>
      <path d="M 13.12093257904053 3.786691665649414 L 10.68798065185547 8.716485977172852 C 10.19070053100586 9.724294662475586 9.229761123657227 10.42231559753418 8.117959976196289 10.58359527587891 L 2.676704406738281 11.37429237365723 L 6.61421012878418 15.21234512329102 C 7.418821334838867 15.99710559844971 7.78546142578125 17.12667465209961 7.595149993896484 18.23286437988281 L 6.665746688842773 23.65265464782715 L 11.53320026397705 21.09379577636719 C 12.02087020874023 20.83761596679688 12.56990051269531 20.70221519470215 13.12093067169189 20.70221519470215 C 13.67196083068848 20.70221519470215 14.22099113464355 20.83761596679688 14.70924091339111 21.09409523010254 L 19.57611083984375 23.65264892578125 L 18.64690017700195 18.23393630981445 C 18.45640182495117 17.12667465209961 18.82304000854492 15.99710559844971 19.62808036804199 15.21191501617432 L 23.56516456604004 11.37428855895996 L 18.12437057495117 10.58366584777832 C 17.01211929321289 10.42231559753418 16.05120086669922 9.724315643310547 15.55394077301025 8.716615676879883 L 13.12093257904053 3.786691665649414 M 13.12072467803955 1.0467529296875 C 13.62464332580566 1.0467529296875 14.12863063812256 1.309350967407227 14.38781070709229 1.834545135498047 L 17.34741973876953 7.83149528503418 C 17.55324172973633 8.24859619140625 17.951171875 8.537605285644531 18.41150093078613 8.604385375976562 L 25.02972030639648 9.566104888916016 C 26.18904113769531 9.734695434570312 26.65155982971191 11.15894508361816 25.8129997253418 11.97616481781006 L 21.02408981323242 16.64410400390625 C 20.69129180908203 16.96869659423828 20.53911972045898 17.43669509887695 20.61794090270996 17.89483642578125 L 21.74825096130371 24.48622512817383 C 21.90503883361816 25.39965629577637 21.17894172668457 26.14144325256348 20.35542678833008 26.14144325256348 C 20.13817596435547 26.14144325256348 19.91422271728516 26.08985137939453 19.69782066345215 25.97616577148438 L 13.77859020233154 22.86437606811523 C 13.57278060913086 22.75627136230469 13.34685611724854 22.70221710205078 13.12093067169189 22.70221710205078 C 12.89500522613525 22.70221710205078 12.66908073425293 22.75627136230469 12.46327114105225 22.86437606811523 L 6.544040679931641 25.97616577148438 C 6.32763671875 26.08996391296387 6.103475570678711 26.14165496826172 5.886224746704102 26.14165496826172 C 5.062709808349609 26.14165496826172 4.336822509765625 25.39965629577637 4.493610382080078 24.48622512817383 L 5.623920440673828 17.89483642578125 C 5.702741622924805 17.43669509887695 5.550571441650391 16.96869659423828 5.217771530151367 16.64410400390625 L 0.4288616180419922 11.97616481781006 C -0.4097099304199219 11.15839576721191 0.05282020568847656 9.734146118164062 1.212141036987305 9.566104888916016 L 7.830350875854492 8.604385375976562 C 8.290691375732422 8.537605285644531 8.688631057739258 8.24859619140625 8.894441604614258 7.83149528503418 L 11.8540506362915 1.834545135498047 C 12.11295604705811 1.309350967407227 12.61680603027344 1.0467529296875 13.12072467803955 1.0467529296875 Z" stroke="none" fill="#a66011"/>
    </g>
  </g>
</svg>
