<svg xmlns="http://www.w3.org/2000/svg" width="55.465" height="55.464" viewBox="0 0 55.465 55.464"><defs><style>.a{fill:#cc3731;}.b{fill:#fff;}</style></defs><g transform="translate(0 0)"><ellipse class="a" cx="27.732" cy="27.732" rx="27.732" ry="27.732" transform="translate(0 0)"/><g transform="translate(12.851 15.151)"><path class="b" d="M124.54,130.929a5.436,5.436,0,0,1,.861.694,7.453,7.453,0,0,1,.9,1.169,7.813,7.813,0,0,1,.748,1.546,7.275,7.275,0,0,1,.268,2.082,6.093,6.093,0,0,1-.963,3.49,10.893,10.893,0,0,1-.962,1.17c-.375.355-.775.72-1.2,1.09a5.578,5.578,0,0,0-.672.853,1.893,1.893,0,0,0-.363,1.149,1.51,1.51,0,0,0,.373,1.052,8.046,8.046,0,0,0,.615.694l1.379,1.13a13.917,13.917,0,0,1,2.253,2.318,5.922,5.922,0,0,1,.952,3.37,6.809,6.809,0,0,1-2.61,5.235q-2.7,2.361-7.805,2.437-4.27-.039-6.376-1.818a4.93,4.93,0,0,1-2.125-3.978,5.691,5.691,0,0,1,.693-2.514,5.956,5.956,0,0,1,2.429-2.433,12.7,12.7,0,0,1,4.147-1.5,31.438,31.438,0,0,1,3.574-.355,8.72,8.72,0,0,1-.784-1.236,2.828,2.828,0,0,1-.4-1.534,2.292,2.292,0,0,1,.152-.9c.089-.254.173-.484.248-.7a11.7,11.7,0,0,1-1.3.08,6.246,6.246,0,0,1-4.948-2.042,6.089,6.089,0,0,1-1.783-4.342,7.407,7.407,0,0,1,2.524-5.432,8.864,8.864,0,0,1,3.6-1.864,17.433,17.433,0,0,1,3.466-.376h8.128l-2.51,1.466H124.54Zm1.569,23.394a3.96,3.96,0,0,0-1.008-2.7,24.755,24.755,0,0,0-3.339-2.677,8.8,8.8,0,0,0-.913-.04,10.616,10.616,0,0,0-1.591.079,17.5,17.5,0,0,0-2.582.575c-.208.079-.5.2-.873.356a5.419,5.419,0,0,0-1.146.734,4.243,4.243,0,0,0-.95,1.23,3.653,3.653,0,0,0-.446,1.863,4.185,4.185,0,0,0,1.939,3.531,8.413,8.413,0,0,0,5.048,1.428,6.977,6.977,0,0,0,4.386-1.269A3.846,3.846,0,0,0,126.109,154.323Zm-5.665-11.913a3.8,3.8,0,0,0,2.674-1.153,4.2,4.2,0,0,0,.663-1.589,13.035,13.035,0,0,0,.089-1.371,10.71,10.71,0,0,0-1.23-4.845,5.407,5.407,0,0,0-1.519-1.907,3.907,3.907,0,0,0-2.209-.734,3.574,3.574,0,0,0-2.747,1.332,5,5,0,0,0-.883,3.019,9.641,9.641,0,0,0,1.289,4.588,6.269,6.269,0,0,0,1.614,1.887A3.552,3.552,0,0,0,120.444,142.41Z" transform="translate(-109.814 -129.463)"/><path class="b" d="M292.659,135.214H288.4v-4.266h-2.067v4.266h-4.264v2.066h4.264v4.264H288.4V137.28h4.264Z" transform="translate(-261.906 -130.774)"/></g></g></svg>