<svg xmlns="http://www.w3.org/2000/svg" width="55.44" height="55.438" viewBox="0 0 55.44 55.438"><defs><style>.a{fill:#25b7d3;}.b{fill:#fff;}.c{fill:#48a1af;}</style></defs><g transform="translate(0 0)"><path class="a" d="M0,27.723A27.72,27.72,0,1,1,27.72,55.442,27.719,27.719,0,0,1,0,27.723Z" transform="translate(0 -0.003)"/><g transform="translate(10.464 10.464)"><path class="b" d="M240.674,100.092l-5.544-5.544a3.069,3.069,0,0,0-4.34,0l-8.563,8.562a3.07,3.07,0,0,0,0,4.341L227.771,113a3.069,3.069,0,0,0,4.34,0l8.563-8.562A3.069,3.069,0,0,0,240.674,100.092Zm-9.148,9.4a1.8,1.8,0,0,1-2.544,0l-3.25-3.25a1.8,1.8,0,0,1,0-2.544l5.644-5.644a1.8,1.8,0,0,1,2.544,0l3.25,3.25a1.8,1.8,0,0,1,0,2.544Z" transform="translate(-207.062 -93.65)"/><path class="b" d="M113,227.77l-5.544-5.544a3.069,3.069,0,0,0-4.34,0l-8.563,8.563a3.069,3.069,0,0,0,0,4.34l5.544,5.544a3.069,3.069,0,0,0,4.34,0L113,232.11A3.069,3.069,0,0,0,113,227.77Zm-9.148,9.4a1.8,1.8,0,0,1-2.544,0l-3.25-3.25a1.8,1.8,0,0,1,0-2.544l5.644-5.644a1.8,1.8,0,0,1,2.544,0l3.25,3.25a1.8,1.8,0,0,1,0,2.544Z" transform="translate(-93.651 -207.061)"/></g><path class="c" d="M197.242,184.364l-.27-.271a2.221,2.221,0,0,0-3.138,0l-9.738,9.738a2.221,2.221,0,0,0,0,3.138l.27.271a2.222,2.222,0,0,0,3.138,0l9.738-9.738A2.221,2.221,0,0,0,197.242,184.364Z" transform="translate(-162.949 -162.948)"/><path class="b" d="M192.481,202.219a1.53,1.53,0,0,1-2.164,0l-.271-.271a1.53,1.53,0,0,1,0-2.164l9.738-9.738a1.53,1.53,0,0,1,2.164,0l.27.27a1.53,1.53,0,0,1,0,2.164Z" transform="translate(-168.413 -168.413)"/></g></svg>