<svg xmlns="http://www.w3.org/2000/svg" xmlns:xlink="http://www.w3.org/1999/xlink" width="104" height="66" viewBox="0 0 104 66">
  <defs>
    <clipPath id="clip-path">
      <rect width="104" height="66" fill="none"/>
    </clipPath>
  </defs>
  <g id="Component" clip-path="url(#clip-path)">
    <rect id="Rectangle_10" data-name="Rectangle 10" width="86" height="48" rx="24" transform="translate(9 7)" fill="#fff"/>
    <text id="Share" transform="translate(37.909 35.41)" font-size="14" font-family = "Exo, sans-serif"><tspan x="0" y="0">Share</tspan></text>
    <g id="share-option" transform="translate(3.307 21.771)">
      <g id="Path_277" data-name="Path 277" transform="translate(0 -27.408)" fill="#00a8e3">
        <path d="M28.909,36.066l-8.348-8.348a1.044,1.044,0,0,0-1.777.734v4.174H15.131Q3.505,32.626.864,39.2A14.848,14.848,0,0,0,0,44.626,19.58,19.58,0,0,0,2.071,51.98q.049.114.171.391t.22.489a1.853,1.853,0,0,0,.212.358.557.557,0,0,0,.457.277.476.476,0,0,0,.383-.163.608.608,0,0,0,.138-.407,3.32,3.32,0,0,0-.041-.432,3.373,3.373,0,0,1-.041-.383Q3.489,51,3.489,50.105a13.879,13.879,0,0,1,.285-2.951A8.861,8.861,0,0,1,4.565,44.9a5.672,5.672,0,0,1,1.3-1.647,7.654,7.654,0,0,1,1.72-1.133,9.326,9.326,0,0,1,2.169-.693,20.675,20.675,0,0,1,2.511-.351q1.264-.1,2.862-.1h3.652v4.174a1.038,1.038,0,0,0,1.777.734l8.348-8.348a1.025,1.025,0,0,0,0-1.468Z" stroke="none"/>
        <path d="M 20.78332138061523 30.7689208984375 L 20.78332138061523 32.62575912475586 L 20.78332138061523 34.62575912475586 L 18.78332138061523 34.62575912475586 L 15.13103199005127 34.62575912475586 C 11.56482124328613 34.62575912475586 8.690561294555664 35.11674880981445 6.588102340698242 36.08510208129883 C 4.676040649414062 36.96575164794922 3.411222457885742 38.22600936889648 2.721561431884766 39.93775177001953 C 2.242774963378906 41.15138244628906 2.000001907348633 42.72880935668945 2.000001907348633 44.62631225585938 C 2.000001907348633 44.90866470336914 2.024232864379883 45.26006698608398 2.090900421142578 45.69269180297852 C 2.285453796386719 45.06029510498047 2.522018432617188 44.48004913330078 2.797941207885742 43.95943069458008 C 3.249141693115234 43.10765075683594 3.841781616210938 42.3602294921875 4.559072494506836 41.73820114135742 C 5.224361419677734 41.1610221862793 5.953842163085938 40.68093109130859 6.727241516113281 40.31127166748047 C 7.48674201965332 39.94824981689453 8.372991561889648 39.66268920898438 9.361232757568359 39.46255111694336 C 10.2689323425293 39.27864074707031 11.19539260864258 39.1492805480957 12.11485290527344 39.07804870605469 C 13.0029125213623 39.00923919677734 14.01770210266113 38.97434997558594 15.13103199005127 38.97434997558594 L 18.78332138061523 38.97434997558594 L 20.78332138061523 38.97434997558594 L 20.78332138061523 40.97434997558594 L 20.78332138061523 42.83104705810547 L 26.8143424987793 36.79982376098633 L 20.78332138061523 30.7689208984375 M 19.82698059082031 27.40800094604492 C 20.10962295532227 27.40800094604492 20.35410308837891 27.51131057739258 20.56066131591797 27.71786880493164 L 28.90891265869141 36.06595230102539 C 29.11531257629395 36.27291107177734 29.21845245361328 36.51757049560547 29.21850204467773 36.80015182495117 C 29.21850204467773 37.08277893066406 29.11530113220215 37.3272590637207 28.90874290466309 37.53382110595703 L 20.56066131591797 45.8821907043457 C 20.35381317138672 46.08853149414062 20.10916137695312 46.19195175170898 19.82659149169922 46.19195175170898 C 19.54412078857422 46.19195175170898 19.29964065551758 46.08853149414062 19.09291076660156 45.8821907043457 C 18.88651275634766 45.67573928833008 18.78332138061523 45.43109130859375 18.78332138061523 45.14850997924805 L 18.78332138061523 40.97434997558594 L 15.13103199005127 40.97434997558594 C 14.06572151184082 40.97434997558594 13.11188125610352 41.00679016113281 12.26935195922852 41.07207107543945 C 11.42682266235352 41.1373405456543 10.58989143371582 41.25424957275391 9.758382797241211 41.42272186279297 C 8.926822662353516 41.59112930297852 8.20399284362793 41.82213973999023 7.589731216430664 42.11574172973633 C 6.975582122802734 42.40927886962891 6.402261734008789 42.78688049316406 5.869722366333008 43.2489013671875 C 5.336952209472656 43.71091079711914 4.902292251586914 44.25944137573242 4.565292358398438 44.8956298828125 C 4.228231430053711 45.53160095214844 3.964681625366211 46.2841796875 3.774332046508789 47.15388870239258 C 3.584272384643555 48.02342987060547 3.489011764526367 49.0071907043457 3.489011764526367 50.10500335693359 C 3.489011764526367 50.70242309570312 3.516202926635742 51.37145233154297 3.570621490478516 52.11032867431641 C 3.570621490478516 52.1756591796875 3.584272384643555 52.30307006835938 3.611461639404297 52.493408203125 C 3.638702392578125 52.68376159667969 3.652292251586914 52.82756042480469 3.652292251586914 52.9256706237793 C 3.652292251586914 53.08831787109375 3.60609245300293 53.22434997558594 3.513862609863281 53.33296966552734 C 3.421401977539062 53.441650390625 3.293651580810547 53.4959602355957 3.13060188293457 53.4959602355957 C 2.95665168762207 53.4959602355957 2.804391860961914 53.40332794189453 2.674072265625 53.21847152709961 C 2.598062515258789 53.12075042724609 2.527362823486328 53.00117111206055 2.461912155151367 52.86005020141602 C 2.396692276000977 52.71858978271484 2.323421478271484 52.55554962158203 2.241811752319336 52.37091827392578 C 2.16014289855957 52.18617248535156 2.103271484375 52.05601119995117 2.070711135864258 51.97978210449219 C 0.6902713775634766 48.88172149658203 1.9073486328125e-06 46.43061065673828 1.9073486328125e-06 44.62631225585938 C 1.9073486328125e-06 42.46319198608398 0.2879428863525391 40.65312194824219 0.8638916015625 39.19673156738281 C 2.625072479248047 34.81612014770508 7.380422592163086 32.62575912475586 15.13103199005127 32.62575912475586 L 18.78332138061523 32.62575912475586 L 18.78332138061523 28.45172119140625 C 18.78332138061523 28.16915130615234 18.88674163818359 27.9245491027832 19.09331130981445 27.71786880493164 C 19.29970169067383 27.51131057739258 19.54435157775879 27.40800094604492 19.82698059082031 27.40800094604492 Z" stroke="none" fill="rgba(51,51,51,0.3)"/>
      </g>
    </g>
  </g>
</svg>
