<svg xmlns="http://www.w3.org/2000/svg" width="55.473" height="55.473" viewBox="0 0 55.473 55.473"><defs><style>.a{fill:#13b3ca;}.b{fill:#fff;}</style></defs><g transform="translate(0 0)"><ellipse class="a" cx="27.737" cy="27.736" rx="27.737" ry="27.736" transform="translate(0 0)"/><path class="b" d="M106.471,135.6c2.217-.183,3.72-1.191,4.3-2.558a7.064,7.064,0,0,1-4.653.516c-.067-.321-.142-.628-.215-.9-1.044-3.836-4.62-6.924-8.367-6.552.3-.122.611-.237.917-.338.412-.148,2.832-.542,2.451-1.4-.321-.751-3.278.568-3.834.74.735-.276,1.95-.752,2.08-1.6a5.86,5.86,0,0,0-3.084,1.461,2.128,2.128,0,0,0,.592-1.172c-3,1.918-4.758,5.785-6.177,9.537a14.7,14.7,0,0,0-2.989-2.4,77.757,77.757,0,0,0-10.125-4.457c-.143,1.544.763,3.6,3.376,4.962a8.28,8.28,0,0,0-2.429.292c.338,1.769,1.438,3.226,4.421,3.931a3.611,3.611,0,0,0-2.7,1.068,4.578,4.578,0,0,0,4.857,2.38c-3.027,1.3-1.234,3.723,1.23,3.362a10.465,10.465,0,0,1-14.638.392c9.937,13.54,31.538,8.007,34.756-5.035a5.982,5.982,0,0,0,4.709-1.779A9.6,9.6,0,0,1,106.471,135.6Z" transform="translate(-63.113 -109.058)"/></g></svg>