<svg xmlns="http://www.w3.org/2000/svg" xmlns:xlink="http://www.w3.org/1999/xlink" width="65.857" height="65.858" viewBox="0 0 65.857 65.858">
  <defs>
    <clipPath id="clip-path">
      <rect width="65.858" height="65.858" fill="none"/>
    </clipPath>
    <linearGradient id="linear-gradient" x1="0.5" x2="0.5" y2="1" gradientUnits="objectBoundingBox">
      <stop offset="0" stop-color="#fb5989"/>
      <stop offset="1" stop-color="#ee2d25"/>
    </linearGradient>
  </defs>
  <g id="Component" clip-path="url(#clip-path)">
    <ellipse id="Ellipse_28" data-name="Ellipse 28" cx="23.929" cy="23.929" rx="23.929" ry="23.929" transform="translate(9 7)" fill="#fff"/>
    <g id="Polygon_6" data-name="Polygon 6" transform="translate(48.768 17.635) rotate(90)" fill="url(#linear-gradient)">
      <path d="M11.987,3.161a2,2,0,0,1,3.5,0L25.831,21.846a2,2,0,0,1-1.75,2.969H3.393a2,2,0,0,1-1.75-2.969Z" stroke="none"/>
      <path d="M 13.73693752288818 4.129535675048828 C 13.73693561553955 4.129535675048828 13.73693370819092 4.129535675048828 13.73693752288818 4.129524230957031 L 3.393136978149414 22.81508445739746 L 24.08072662353516 22.81508445739746 L 13.7369384765625 4.129535675048828 C 13.7369384765625 4.129535675048828 13.73693752288818 4.129535675048828 13.73693752288818 4.129535675048828 M 13.73693656921387 2.129531860351562 C 14.42151737213135 2.129531860351562 15.10609722137451 2.473320007324219 15.48671722412109 3.160894393920898 L 25.83051681518555 21.84645462036133 C 26.56843757629395 23.17946434020996 25.60435676574707 24.81508445739746 24.08073806762695 24.81508445739746 L 3.393136978149414 24.81508445739746 C 1.8695068359375 24.81508445739746 0.9054374694824219 23.17946434020996 1.643346786499023 21.84645462036133 L 11.98714733123779 3.160894393920898 C 12.36777210235596 2.473320007324219 13.05235481262207 2.129531860351562 13.73693656921387 2.129531860351562 Z" stroke="none" fill="rgba(0,0,0,0.3)"/>
    </g>
  </g>
</svg>
